<svg width="776" height="697" viewBox="0 0 776 697" fill="none" xmlns="http://www.w3.org/2000/svg">
<path d="M65.3252 0.340371C78.5472 -0.421829 92.2292 0.333966 105.499 0.335366L679.645 0.321969C690.323 0.304369 701.457 -0.325029 712.061 0.838571C744.595 4.40857 773.799 31.5458 775.417 65.1706C776.111 79.5986 775.649 94.2126 775.645 108.659L775.667 605.789C775.675 615.073 776.147 624.649 774.949 633.865C770.529 667.899 742.039 695.269 707.407 696.683L87.6392 696.709C46.631 696.991 10.4174 686.481 1.51395 638.593C-0.407647 628.257 0.219953 617.395 0.235953 606.917L0.247351 107.043C0.248951 80.1166 -2.90985 54.9346 13.3034 31.5074C26.147 12.95 43.6658 4.23077 65.3252 0.340371ZM29.4168 160.169L29.3964 616.801C29.4006 663.885 52.2943 668.371 93.2891 668.369L680.813 668.341C700.753 668.163 719.895 668.395 734.459 652.667C746.601 638.251 746.759 628.079 746.725 610.435L746.665 160.169C717.051 160.545 687.379 160.169 657.759 160.169H29.4168Z" fill="#2E6191"/>
<path d="M116.185 29.8094L684.497 29.785C709.551 29.785 734.951 29.0628 743.905 59.0166C748.505 74.4006 746.693 113.541 746.665 130.979H659.723H29.4168L29.3828 96.2786C29.3486 48.2126 38.5437 29.8036 90.0011 29.7802L116.185 29.8094Z" fill="#8FBEF7"/>
<path d="M60.9345 67.6146H113.443V97.2666H60.9345V67.6146Z" fill="#2E6191"/>
<path d="M232.021 67.6146H284.971V97.2666H232.021V67.6146Z" fill="#2E6191"/>
<path d="M146.295 67.6146H200.481C200.511 77.4926 200.669 87.3886 200.481 97.2666H146.295V67.6146Z" fill="#2E6191"/>
<path d="M186.333 246.083H247.331C246.849 268.255 248.851 293.573 247.265 315.155C245.983 316.079 244.117 315.697 242.609 315.633H181.537V246.083H186.333Z" fill="#6682C3"/>
<path d="M181.537 358.355H247.331V578.571L203.145 578.591C196.045 578.607 188.575 579.287 181.537 578.571V358.355Z" fill="#6682C3"/>
<path d="M384.271 247.993C416.165 247.973 454.041 245.591 484.857 253.435C632.475 291.005 651.641 485.147 521.217 561.445C481.823 579.979 460.263 578.601 419.133 578.589C390.227 578.581 359.165 581.163 336.117 560.201C309.569 536.055 315.515 498.483 315.505 466.221L315.513 333.833C315.457 324.021 314.543 313.795 316.223 304.101C322.133 269.983 350.443 249.215 384.271 247.993ZM394.245 297.023C364.807 299.659 369.837 332.385 369.827 353.383L369.825 472.123C369.833 490.789 364.355 526.771 389.073 532.759C423.555 541.113 476.823 531.831 506.465 510.923C588.161 451.263 560.915 313.225 459.465 298.441C443.869 296.169 411.187 295.801 394.245 297.023Z" fill="#556BF2"/>
</svg>
