<svg width="757" height="244" viewBox="0 0 757 244" fill="none" xmlns="http://www.w3.org/2000/svg">
<path fill-rule="evenodd" clip-rule="evenodd" d="M111.229 49.1159C131.401 48.1815 148.263 52.8927 161.374 63.4282C174.722 74.1536 181.761 91.1535 182.895 113.757L182.949 114.931L183.357 124.927H102.043V105.717L162.78 105.719L162.67 105.008C160.747 92.9758 156.388 84.3459 149.785 78.7962L149.286 78.3858C142.25 72.7316 133.43 69.4015 122.63 68.4758L121.308 68.3764V94.9324L111.462 95.652L109.662 95.8092C109.366 95.8373 109.071 95.8664 108.778 95.8965L107.04 96.0886C106.754 96.1226 106.469 96.1575 106.186 96.1934L104.509 96.4207C79.3875 100.046 68.265 111.795 68.265 132.953C68.265 149.306 73.7303 159.618 83.4817 165.872C91.1359 170.78 101.278 173.024 111.676 173.024C122.882 173.024 129.204 166.989 129.204 159.762C129.204 153.375 123.654 148.511 112.348 148.326L111.676 148.321H102.043V129.111H111.676C133.47 129.111 148.469 141.924 148.469 159.762C148.469 177.79 133.339 192.234 111.676 192.234C97.8994 192.234 84.2737 189.219 73.0608 182.029C57.713 172.186 49 155.746 49 132.953C49 101.799 67.1929 82.9171 100.694 77.5953L102.043 77.3916V49.5413L111.229 49.1159ZM270.363 177.837C275.687 177.837 280.579 177.012 285.04 175.363C289.501 173.714 293.194 171.54 296.118 168.841C299.042 166.142 301.423 163.256 303.26 160.182C305.097 157.109 306.428 153.96 307.252 150.737L292.744 146.351C291.47 150.774 288.977 154.597 285.265 157.821C281.554 161.045 276.587 162.656 270.363 162.656C263.54 162.656 257.711 160.295 252.875 155.572C248.039 150.849 245.621 144.44 245.621 136.343C245.621 127.872 248.076 121.313 252.987 116.665C257.898 112.017 263.615 109.693 270.139 109.693C276.437 109.693 281.385 111.248 284.984 114.359C288.583 117.471 290.945 121.275 292.069 125.773L306.69 121.163C304.891 113.891 300.898 107.669 294.712 102.496C288.527 97.3235 280.335 94.7371 270.139 94.7371C259.042 94.7371 249.501 98.5979 241.516 106.319C233.531 114.041 229.538 124.049 229.538 136.343C229.538 148.713 233.474 158.721 241.347 166.367C249.22 174.014 258.892 177.837 270.363 177.837ZM331.936 177.724C339.284 177.724 344.72 174.988 348.243 169.516C348.243 172.289 348.431 174.501 348.806 176.15H362.527C362.077 173.601 361.852 170.678 361.852 167.379V140.167C361.852 134.019 359.902 128.978 356.004 125.042C352.105 121.106 346.032 119.139 337.784 119.139C330.886 119.139 325.338 120.975 321.139 124.649C316.94 128.322 314.579 132.557 314.054 137.355L327.325 140.167C327.55 137.618 328.581 135.481 330.418 133.757C332.254 132.033 334.747 131.171 337.897 131.171C340.896 131.171 343.201 131.845 344.813 133.195C346.425 134.544 347.231 136.268 347.231 138.367C347.231 140.616 345.844 141.928 343.07 142.303L329.462 144.327C324.588 145.077 320.614 146.876 317.54 149.725C314.466 152.573 312.929 156.359 312.929 161.082C312.929 165.58 314.672 169.478 318.159 172.777C321.645 176.075 326.238 177.724 331.936 177.724ZM335.085 166.592C332.836 166.592 331.074 165.974 329.799 164.737C328.524 163.5 327.887 161.982 327.887 160.182C327.887 156.209 330.174 153.885 334.747 153.211L347.231 151.299V153.773C347.231 158.346 346.088 161.626 343.801 163.612C341.514 165.599 338.609 166.592 335.085 166.592ZM390.697 176.15V143.765C390.697 140.616 391.634 138.011 393.508 135.95C395.383 133.888 397.894 132.857 401.043 132.857C404.267 132.857 406.704 133.813 408.354 135.725C410.003 137.636 410.828 140.167 410.828 143.315V176.15H425.674V143.765C425.674 140.691 426.611 138.105 428.485 136.006C430.36 133.907 432.834 132.857 435.908 132.857C439.207 132.857 441.663 133.813 443.275 135.725C444.887 137.636 445.693 140.167 445.693 143.315V176.15H460.201V140.279C460.201 133.307 458.27 128.06 454.409 124.536C450.547 121.013 445.805 119.251 440.182 119.251C432.459 119.251 426.611 122.325 422.637 128.472C419.713 122.325 414.24 119.251 406.217 119.251C402.993 119.251 399.844 120.001 396.77 121.5C393.696 122.999 391.446 125.023 390.022 127.572V120.825H375.739V176.15H390.697ZM481.623 111.829C484.172 111.829 486.346 110.93 488.146 109.131C489.945 107.331 490.845 105.195 490.845 102.721C490.845 100.097 489.945 97.8857 488.146 96.0865C486.346 94.2873 484.172 93.3878 481.623 93.3878C479.073 93.3878 476.899 94.3061 475.1 96.1428C473.3 97.9794 472.4 100.172 472.4 102.721C472.4 105.195 473.3 107.331 475.1 109.131C476.899 110.93 479.073 111.829 481.623 111.829ZM489.158 176.15V120.825H474.2V176.15H489.158ZM518.902 176.15V94.7371H503.944V176.15H518.902ZM548.647 176.15V94.7371H533.689V176.15H548.647ZM570.856 111.829C573.405 111.829 575.579 110.93 577.379 109.131C579.178 107.331 580.078 105.195 580.078 102.721C580.078 100.097 579.178 97.8857 577.379 96.0865C575.579 94.2873 573.405 93.3878 570.856 93.3878C568.307 93.3878 566.132 94.3061 564.333 96.1428C562.533 97.9794 561.634 100.172 561.634 102.721C561.634 105.195 562.533 107.331 564.333 109.131C566.132 110.93 568.307 111.829 570.856 111.829ZM578.391 176.15V120.825H563.433V176.15H578.391ZM618.033 177.837C626.355 177.837 633.272 175.063 638.783 169.516C644.293 163.968 647.049 156.959 647.049 148.488C647.049 140.017 644.293 133.007 638.783 127.46C633.272 121.912 626.355 119.139 618.033 119.139C609.71 119.139 602.775 121.912 597.226 127.46C591.753 133.007 589.016 140.017 589.016 148.488C589.016 156.959 591.772 163.968 597.283 169.516C602.793 175.063 609.71 177.837 618.033 177.837ZM618.033 164.231C614.134 164.231 610.797 162.844 608.023 160.07C605.324 157.296 603.974 153.436 603.974 148.488C603.974 143.54 605.343 139.679 608.079 136.906C610.816 134.132 614.134 132.745 618.033 132.745C621.931 132.745 625.249 134.132 627.986 136.906C630.723 139.679 632.091 143.54 632.091 148.488C632.091 153.436 630.723 157.296 627.986 160.07C625.249 162.844 621.931 164.231 618.033 164.231ZM672.632 176.15V144.327C672.632 141.029 673.569 138.292 675.444 136.118C677.318 133.944 679.83 132.857 682.979 132.857C686.428 132.857 688.996 133.869 690.683 135.893C692.37 137.918 693.213 140.579 693.213 143.877V176.15H708.171V141.291C708.171 134.844 706.466 129.578 703.054 125.492C699.643 121.406 694.675 119.363 688.152 119.363C684.928 119.363 681.854 120.076 678.93 121.5C676.006 122.924 673.757 124.986 672.182 127.685V120.825H657.674V176.15H672.632Z" fill="#24585C"/>
</svg>
