<svg width="202" height="202" viewBox="0 0 202 202" fill="none" xmlns="http://www.w3.org/2000/svg">
<path d="M100.781 201.562C127.51 201.562 153.144 190.945 172.044 172.044C190.945 153.144 201.562 127.51 201.562 100.781C201.562 74.0524 190.945 48.4183 172.044 29.5181C153.144 10.618 127.51 0 100.781 0C74.0524 0 48.4183 10.618 29.5181 29.5181C10.618 48.4183 0 74.0524 0 100.781C0 127.51 10.618 153.144 29.5181 172.044C48.4183 190.945 74.0524 201.562 100.781 201.562Z" fill="#333333"/>
<path d="M100.281 194.031C125.145 194.031 148.991 184.154 166.573 166.573C184.154 148.991 194.031 125.145 194.031 100.281C194.031 75.4172 184.154 51.5715 166.573 33.99C148.991 16.4084 125.145 6.53125 100.281 6.53125C75.4172 6.53125 51.5715 16.4084 33.99 33.99C16.4084 51.5715 6.53125 75.4172 6.53125 100.281C6.53125 125.145 16.4084 148.991 33.99 166.573C51.5715 184.154 75.4172 194.031 100.281 194.031Z" fill="#333333"/>
<path d="M100.281 189.344C123.902 189.344 146.556 179.96 163.258 163.258C179.96 146.556 189.344 123.902 189.344 100.281C189.344 76.6604 179.96 54.007 163.258 37.3045C146.556 20.6021 123.902 11.2188 100.281 11.2188C76.6604 11.2188 54.007 20.6021 37.3045 37.3045C20.6021 54.007 11.2188 76.6604 11.2188 100.281C11.2188 123.902 20.6021 146.556 37.3045 163.258C54.007 179.96 76.6604 189.344 100.281 189.344Z" fill="#333333"/>
</svg>
