<svg width="207" height="207" viewBox="0 0 207 207" fill="none" xmlns="http://www.w3.org/2000/svg">
<path d="M103.125 206.25C130.475 206.25 156.706 195.385 176.045 176.045C195.385 156.706 206.25 130.475 206.25 103.125C206.25 75.7745 195.385 49.5443 176.045 30.2046C156.706 10.8649 130.475 0 103.125 0C75.7745 0 49.5443 10.8649 30.2046 30.2046C10.8649 49.5443 0 75.7745 0 103.125C0 130.475 10.8649 156.706 30.2046 176.045C49.5443 195.385 75.7745 206.25 103.125 206.25Z" fill="black"/>
<path d="M103.125 182.812C124.259 182.812 144.528 174.417 159.473 159.473C174.417 144.528 182.812 124.259 182.812 103.125C182.812 81.9906 174.417 61.7217 159.473 46.7774C144.528 31.8331 124.259 23.4375 103.125 23.4375C81.9906 23.4375 61.7217 31.8331 46.7774 46.7774C31.8331 61.7217 23.4375 81.9906 23.4375 103.125C23.4375 124.259 31.8331 144.528 46.7774 159.473C61.7217 174.417 81.9906 182.812 103.125 182.812Z" fill="white"/>
<path d="M103.125 159.375C118.043 159.375 132.351 153.449 142.9 142.9C153.449 132.351 159.375 118.043 159.375 103.125C159.375 88.2066 153.449 73.8992 142.9 63.3502C132.351 52.8013 118.043 46.875 103.125 46.875C88.2066 46.875 73.8992 52.8013 63.3502 63.3502C52.8013 73.8992 46.875 88.2066 46.875 103.125C46.875 118.043 52.8013 132.351 63.3502 142.9C73.8992 153.449 88.2066 159.375 103.125 159.375Z" fill="black"/>
</svg>
