<svg width="578" height="640" viewBox="0 0 578 640" fill="none" xmlns="http://www.w3.org/2000/svg">
<path d="M398.753 615C398.872 596.387 398.988 531.786 398.988 506.209C398.988 469.246 386.363 445.06 372.203 432.817C460.109 422.995 552.396 389.512 552.396 237.212C552.396 193.939 537.152 158.539 511.833 130.841C515.888 120.811 529.426 80.4914 507.899 25.9164C507.899 25.9164 474.827 15.2644 399.458 66.5945C367.917 57.7724 334.196 53.4072 300.657 53.2318C267.115 53.4072 233.397 57.7764 201.852 66.5945C126.484 15.2644 93.416 25.9164 93.416 25.9164C71.889 80.4914 85.4271 120.811 89.4814 130.841C64.1632 158.539 48.9189 193.939 48.9189 237.212C48.9189 389.512 141.202 422.995 229.108 432.817C214.952 445.06 202.323 469.246 202.323 506.209C202.323 531.786 202.442 596.387 202.558 615M25 455.54C64.6217 458.343 87.4682 494.349 87.4682 494.349C122.685 554.94 179.867 537.415 202.339 527.297" stroke="black" stroke-width="50" stroke-linecap="round" stroke-linejoin="round"/>
</svg>
