<svg width="764" height="765" viewBox="0 0 764 765" fill="none" xmlns="http://www.w3.org/2000/svg">
<path fill-rule="evenodd" clip-rule="evenodd" d="M465.375 239.589V269.454C494.187 251.554 527.45 241.121 577.99 241.121C742.486 241.121 763.545 364.074 763.545 471.185V763.325L573.348 765V485.591C573.348 438.688 556.549 429.786 525.488 429.786C495.958 429.786 477.627 439.119 477.627 485.591V765L284.941 763.325V239.588L465.375 239.589ZM191.441 239.273V764.78H0V239.274H191.441V239.273ZM143.581 287.134H47.8603V716.919H143.581V287.134V287.134ZM417.515 287.449H332.802V715.895L429.767 716.757V485.591C429.767 395.374 489.736 381.926 525.488 381.926C569.136 381.926 621.208 399.921 621.208 485.591V716.757L715.684 715.895V471.185C715.684 338.373 678.401 288.981 577.99 288.981C517.638 288.981 491.507 306.881 465.901 328.418L459.249 334.065H417.515V287.449ZM95.7206 0C148.511 0 191.441 42.9308 191.441 95.7206C191.441 148.511 148.511 191.441 95.7206 191.441C42.9308 191.441 0 148.511 0 95.7206C0 42.9308 42.9308 0 95.7206 0ZM95.7206 47.8603C69.3496 47.8603 47.8603 69.3496 47.8603 95.7206C47.8603 122.092 69.3496 143.581 95.7206 143.581C122.092 143.581 143.581 122.092 143.581 95.7206C143.581 69.3496 122.092 47.8603 95.7206 47.8603Z" fill="black"/>
</svg>
