<?xml version="1.0" encoding="utf-8" ?>
<svg xmlns="http://www.w3.org/2000/svg" xmlns:xlink="http://www.w3.org/1999/xlink" width="1024" height="1024">
	<path fill="#2E6191" transform="scale(2 2)" d="M94.676 79.2489C101.287 78.8678 108.128 79.2457 114.763 79.2464L401.836 79.2397C407.175 79.2309 412.742 78.9162 418.044 79.498C434.311 81.283 448.913 94.8516 449.722 111.664C450.069 118.878 449.838 126.185 449.836 133.408L449.847 381.973C449.851 386.615 450.087 391.403 449.488 396.011C447.278 413.028 433.033 426.713 415.717 427.42L105.833 427.433C85.3289 427.574 67.2221 422.319 62.7704 398.375C61.8096 393.207 62.1234 387.776 62.1314 382.537L62.1371 132.6C62.1379 119.137 60.5585 106.546 68.6651 94.8324C75.0869 85.5537 83.8463 81.1941 94.676 79.2489ZM76.7218 159.163L76.7116 387.479C76.7137 411.021 88.1606 413.264 108.658 413.263L402.42 413.249C412.39 413.16 421.961 413.276 429.243 405.412C435.314 398.204 435.393 393.118 435.376 384.296L435.346 159.163C420.539 159.351 405.703 159.163 390.893 159.163L76.7218 159.163Z"/>
	<path fill="#8FBEF7" transform="scale(2 2)" d="M120.106 93.9834L404.262 93.9712C416.789 93.9712 429.489 93.6101 433.966 108.587C436.266 116.279 435.36 135.849 435.346 144.568L391.875 144.568L76.7218 144.568L76.7048 127.218C76.6877 103.185 81.2853 93.9805 107.014 93.9688L120.106 93.9834Z"/>
	<path fill="#2E6191" transform="scale(2 2)" d="M92.4807 112.886L118.735 112.886L118.735 127.712L92.4807 127.712L92.4807 112.886Z"/>
	<path fill="#2E6191" transform="scale(2 2)" d="M178.024 112.886L204.499 112.886L204.499 127.712L178.024 127.712L178.024 112.886Z"/>
	<path fill="#2E6191" transform="scale(2 2)" d="M135.161 112.886L162.254 112.886C162.269 117.825 162.348 122.773 162.254 127.712L135.161 127.712L135.161 112.886Z"/>
	<path fill="#6682C3" transform="scale(2 2)" d="M155.18 202.12L185.679 202.12C185.438 213.206 186.439 225.865 185.646 236.656C185.005 237.118 184.072 236.927 183.318 236.895L152.782 236.895L152.782 202.12L155.18 202.12Z"/>
	<path fill="#6682C3" transform="scale(2 2)" d="M152.782 258.256L185.679 258.256L185.679 368.364L163.586 368.374C160.036 368.382 156.301 368.722 152.782 368.364L152.782 258.256Z"/>
	<path fill="#556BF2" transform="scale(2 2)" d="M254.149 203.075C270.096 203.065 289.034 201.874 304.442 205.796C378.251 224.581 387.834 321.652 322.622 359.801C302.925 369.068 292.145 368.379 271.58 368.373C257.127 368.369 241.596 369.66 230.072 359.179C216.798 347.106 219.771 328.32 219.766 312.189L219.77 245.995C219.742 241.089 219.285 235.976 220.125 231.129C223.08 214.07 237.235 203.686 254.149 203.075ZM259.136 227.59C244.417 228.908 246.932 245.271 246.927 255.77L246.926 315.14C246.93 324.473 244.191 342.464 256.55 345.458C273.791 349.635 300.425 344.994 315.246 334.54C356.094 304.71 342.471 235.691 291.746 228.299C283.948 227.163 267.607 226.979 259.136 227.59Z"/>
</svg>
