<svg width="303" height="311" viewBox="0 0 303 311" fill="none" xmlns="http://www.w3.org/2000/svg">
<path d="M25.2897 117.988L24.5204 120.782L0.843307 114.256L1.6142 111.462L25.2897 117.988Z" fill="#636365"/>
<path d="M39.6389 105.177C38.6958 107.221 37.5547 108.694 36.2141 109.597C34.8639 110.495 33.4766 110.614 32.0491 109.954C31.3361 109.624 30.7535 109.099 30.3045 108.377C29.8587 107.645 29.561 106.795 29.4129 105.826L29.2681 105.758C28.8303 106.048 28.325 106.23 27.752 106.306C27.1791 106.381 26.5659 106.267 25.9109 105.963C25.2173 105.642 24.6958 105.163 24.3482 104.522C24.0102 103.887 23.7898 103.299 23.6868 102.762L23.5564 102.702C22.8789 103.056 22.0565 103.267 21.0892 103.335C20.1172 103.412 19.1451 103.227 18.1714 102.778C16.9757 102.226 16.0632 101.466 15.4355 100.497C14.8159 99.5333 14.4795 98.4775 14.4248 97.33C14.3749 96.1729 14.6035 95.0447 15.1088 93.9439C15.3228 93.4804 15.5594 93.07 15.8185 92.7111C16.0825 92.3651 16.34 92.0754 16.5894 91.8389L19.2401 86.0982L21.2357 87.0188L19.6392 90.4741C20.2218 90.252 20.8832 90.1474 21.6251 90.1635C22.3574 90.1732 23.08 90.3438 23.793 90.6721C24.9694 91.2144 25.8642 91.9499 26.4774 92.8769C27.0906 93.8039 27.4189 94.8259 27.464 95.946C27.509 97.0661 27.2708 98.1895 26.751 99.3176C26.5643 99.7232 26.3229 100.119 26.0252 100.509C25.7291 100.898 25.4072 101.241 25.0596 101.537C25.1626 101.947 25.3171 102.334 25.5231 102.697C25.7435 103.056 26.0799 103.341 26.5337 103.55C27.0825 103.805 27.6217 103.801 28.1512 103.542C28.6806 103.283 29.2053 102.589 29.7251 101.461L31.2202 98.2216C32.1006 96.3129 33.0807 95.0286 34.1557 94.3688C35.2276 93.717 36.4394 93.7041 37.7897 94.3253C38.7923 94.7888 39.5664 95.5549 40.1136 96.6267C40.6608 97.697 40.9135 98.9716 40.8733 100.451C40.8201 101.934 40.4081 103.51 39.6389 105.177ZM25 98.5097C25.4538 97.5264 25.486 96.506 25.0966 95.4487C24.7071 94.3913 23.9008 93.5818 22.6761 93.0169C21.432 92.4424 20.2942 92.3506 19.261 92.7385C18.2278 93.1264 17.4794 93.8232 17.0175 94.8259C16.554 95.8285 16.5122 96.844 16.892 97.8724C17.275 98.8911 18.0894 99.6878 19.3334 100.261C20.5581 100.826 21.696 100.919 22.7485 100.539C23.801 100.159 24.551 99.4834 25 98.5097ZM37.9571 103.998C38.456 102.918 38.7247 101.902 38.7666 100.951C38.8036 100.01 38.6588 99.1937 38.3337 98.5065C38.0037 97.8273 37.5451 97.3526 36.956 97.0806C36.1658 96.7153 35.4867 96.741 34.9202 97.1594C34.3585 97.5908 33.8226 98.36 33.3108 99.4689L31.9493 102.419C31.8109 102.718 31.6371 103.047 31.4246 103.404C31.2122 103.763 30.9708 104.107 30.702 104.439C30.8356 105.237 31.0899 105.892 31.4616 106.402C31.8479 106.907 32.2872 107.274 32.7781 107.501C33.6745 107.915 34.5854 107.815 35.5124 107.202C36.4394 106.589 37.2554 105.52 37.9571 103.998Z" fill="#636365"/>
<path d="M44.7679 80.8726C43.9262 82.0716 42.8367 82.9809 41.4961 83.5973C40.1619 84.2056 38.6942 84.4213 37.0928 84.2442C35.4915 84.0672 33.8693 83.4042 32.2277 82.2518C30.5668 81.0867 29.3775 79.7798 28.6565 78.3266C27.9371 76.8749 27.6345 75.4184 27.752 73.9587C27.8663 72.4829 28.3443 71.1456 29.186 69.945C30.0389 68.7283 31.1414 67.8142 32.49 67.2042C33.8306 66.5878 35.3048 66.3705 36.9142 66.5524C38.5236 66.7343 40.1587 67.4086 41.8196 68.5722C43.4627 69.7245 44.6392 71.0232 45.3521 72.4685C46.0635 73.9137 46.358 75.3718 46.2341 76.8427C46.1118 78.3121 45.6225 79.6559 44.7679 80.8726ZM42.8254 79.5095C43.7524 78.1882 43.9697 76.7397 43.4804 75.1642C42.9847 73.5966 41.8662 72.2045 40.1281 70.9846C38.3723 69.7534 36.668 69.1676 35.0183 69.2288C33.3607 69.298 32.07 69.9949 31.143 71.3161C30.5395 72.1772 30.2514 73.1154 30.2755 74.1326C30.3013 75.1497 30.6215 76.1459 31.2347 77.1195C31.8511 78.1093 32.7459 79.0154 33.9191 79.8394C35.6573 81.0593 37.3487 81.6354 38.9903 81.5662C40.6383 81.4906 41.9177 80.805 42.8254 79.5095Z" fill="#636365"/>
<path d="M57.9471 64.4522L55.937 66.4977L43.0089 53.7949L44.6842 52.0906L47.2142 54.1973L47.2576 54.1506C46.8939 52.9001 46.778 51.722 46.9116 50.618C47.0516 49.5059 47.4829 48.5822 48.2056 47.8467C48.7495 47.293 49.2822 46.9245 49.8053 46.741L51.1089 48.9137C50.8626 49.044 50.6502 49.176 50.4699 49.3144C50.2752 49.4512 50.0451 49.6556 49.7779 49.9276C49.242 50.4732 48.904 51.2714 48.7624 52.3239C48.6208 53.3765 48.896 54.6801 49.5848 56.2363L57.9471 64.4522Z" fill="#636365"/>
<path d="M88.8052 41.7037L83.3704 44.6778L71.5801 23.1331L76.8894 20.2282C80.2047 18.4144 83.2352 17.967 85.9775 18.886C88.7151 19.821 91.0149 21.9873 92.8753 25.3879C94.7406 28.7965 95.3441 31.9219 94.6842 34.7641C94.0147 37.611 92.0561 39.9237 88.8052 41.7037ZM75.2704 23.838L84.7657 41.1903L87.3375 39.7837C89.8996 38.3819 91.3947 36.5585 91.8244 34.315C92.2493 32.0619 91.7149 29.569 90.2215 26.8411C88.728 24.1116 86.9335 22.3461 84.8365 21.5447C82.7346 20.7336 80.4027 21.0297 77.8405 22.4314L75.2704 23.838Z" fill="#636365"/>
<path d="M119.248 29.5272L106.201 33.6456L105.741 32.1875L110.765 15.6705L102.488 18.2825L101.778 16.0342L113.519 12.3294L113.979 13.7875L108.99 30.3093L118.543 27.295L119.248 29.5272Z" fill="#636365"/>
<path d="M131.349 27.1163L128.531 27.6361L125.238 9.81395L128.058 9.29251L131.349 27.1163ZM126.001 5.78569C125.438 5.8903 124.945 5.79696 124.525 5.50727C124.115 5.21597 123.856 4.77339 123.745 4.17793C123.645 3.63557 123.733 3.15436 124.013 2.73593C124.305 2.32554 124.733 2.06804 125.296 1.96343C125.871 1.85721 126.362 1.94412 126.769 2.22576C127.179 2.51705 127.433 2.93388 127.535 3.47785C127.644 4.07332 127.561 4.58027 127.28 4.99871C127.002 5.41714 126.576 5.67947 126.001 5.78569Z" fill="#636365"/>
<path d="M149.839 26.2408C148.247 26.2971 146.797 25.9753 145.487 25.2768C144.189 24.5783 143.142 23.5371 142.351 22.1514C141.559 20.7657 141.128 19.0711 141.057 17.0642C140.986 15.038 141.329 13.2982 142.087 11.8498C142.833 10.3998 143.851 9.28125 145.14 8.49265C146.429 7.6928 147.843 7.26631 149.382 7.21159C150.592 7.16975 151.629 7.34034 152.491 7.72498C153.354 8.10962 154.115 8.59244 154.773 9.17503L153.388 11.0081C152.861 10.5591 152.281 10.2018 151.645 9.93787C151.02 9.68359 150.336 9.56933 149.593 9.59508C148.468 9.6337 147.477 9.97167 146.617 10.6074C145.758 11.2431 145.096 12.0993 144.634 13.1791C144.163 14.2687 143.952 15.5304 144.002 16.9628C144.076 19.0855 144.667 20.7802 145.772 22.0484C146.879 23.3166 148.292 23.9201 150.011 23.8606C150.882 23.83 151.677 23.6385 152.398 23.2828C153.119 22.9175 153.745 22.4765 154.279 21.9583L155.617 23.7286C154.004 25.3251 152.079 26.1636 149.839 26.2408Z" fill="#636365"/>
<path d="M167.531 26.8073L164.689 26.4307L168.188 0L171.03 0.376593L170.069 7.63969L169.462 11.367C170.445 10.6508 171.455 10.0666 172.489 9.61439C173.526 9.1525 174.664 9.00283 175.908 9.16699C177.781 9.41483 179.077 10.1922 179.791 11.4974C180.519 12.8042 180.729 14.6051 180.425 16.8984L178.914 28.3137L176.104 27.9419L177.567 16.8904C177.792 15.1844 177.68 13.9002 177.226 13.0375C176.782 12.1862 175.933 11.6776 174.681 11.5118C173.754 11.3895 172.885 11.5263 172.073 11.9206C171.261 12.3053 170.325 12.9056 169.264 13.7183L167.531 26.8073Z" fill="#636365"/>
<path d="M191.882 32.1923L189.195 31.2926L197.665 6.01262L200.354 6.91387L194.549 24.2339L194.639 24.2645L205.222 17.5486L208.272 18.5706L200.206 23.5435L203.299 36.0178L200.325 35.0216L198.033 24.9147L193.416 27.6168L191.882 32.1923Z" fill="#636365"/>
<path d="M216.565 43.6188C215.284 42.9091 214.265 41.9209 213.511 40.6544C212.766 39.3926 212.395 37.9555 212.402 36.3445C212.408 34.7335 212.898 33.0501 213.87 31.2943C214.851 29.5207 216.026 28.1978 217.394 27.3288C218.762 26.4597 220.178 26.0059 221.643 25.9688C223.123 25.927 224.504 26.2601 225.785 26.9699C227.086 27.6893 228.111 28.6887 228.859 29.9649C229.614 31.2331 229.986 32.6767 229.975 34.2957C229.963 35.9164 229.466 37.6127 228.484 39.3878C227.512 41.1436 226.345 42.4504 224.984 43.3114C223.622 44.1709 222.203 44.6183 220.727 44.6504C219.253 44.6826 217.866 44.3398 216.565 43.6188ZM217.714 41.5427C219.126 42.3249 220.59 42.3893 222.105 41.7359C223.611 41.0776 224.878 39.8191 225.908 37.9603C226.947 36.0838 227.348 34.3279 227.113 32.6928C226.869 31.0528 226.04 29.841 224.628 29.0588C223.709 28.5503 222.745 28.362 221.736 28.4956C220.727 28.6291 219.771 29.0524 218.867 29.7654C217.948 30.4831 217.141 31.4681 216.446 32.7218C215.418 34.579 215.024 36.3219 215.265 37.9474C215.514 39.5793 216.332 40.7767 217.714 41.5427Z" fill="#636365"/>
<path d="M237.407 57.762L234.846 55.6328L241.38 37.4936L243.657 39.3878L239.705 49.6685C239.34 50.5391 238.979 51.405 238.62 52.2676C238.263 53.1447 237.917 54.0106 237.58 54.8619L237.703 54.9633C238.464 54.4644 239.246 53.9623 240.052 53.4585C240.851 52.9629 241.638 52.4495 242.41 51.9184L251.812 46.1697L253.967 47.9625L237.407 57.762Z" fill="#636365"/>
<path d="M251.102 71.9905C250.214 70.9766 249.561 69.8838 249.141 68.7122C248.722 67.5406 248.539 66.3818 248.592 65.2327L250.744 65.1265C250.776 66.1291 250.941 67.069 251.246 67.9477C251.548 68.8409 252.079 69.7229 252.842 70.5935C253.647 71.5125 254.471 72.0098 255.317 72.0886C256.162 72.1675 256.888 71.9406 257.495 71.4095C257.974 70.9894 258.24 70.4889 258.295 69.9047C258.34 69.3286 258.266 68.7025 258.069 68.0266C257.88 67.3587 257.646 66.6812 257.368 65.994C257.028 65.1056 256.751 64.2108 256.542 63.3095C256.339 62.4002 256.314 61.5344 256.465 60.7088C256.618 59.8832 257.068 59.1429 257.82 58.4846C258.882 57.5544 260.137 57.1665 261.587 57.3227C263.044 57.4868 264.415 58.3044 265.703 59.7737C266.445 60.6203 266.985 61.5296 267.328 62.5C267.663 63.4624 267.842 64.4007 267.864 65.3116L265.724 65.4291C265.656 64.6421 265.493 63.9082 265.238 63.2307C264.982 62.5515 264.584 61.9045 264.045 61.2898C263.255 60.3869 262.473 59.9137 261.702 59.8703C260.923 59.8188 260.274 60.02 259.754 60.4754C259.099 61.0484 258.85 61.7549 259.004 62.5917C259.159 63.4302 259.442 64.3958 259.851 65.4918C260.232 66.4269 260.548 67.3667 260.792 68.3082C261.04 69.2352 261.082 70.13 260.92 70.9927C260.765 71.8472 260.265 72.6455 259.418 73.3874C258.316 74.353 257.002 74.7554 255.478 74.5928C253.953 74.4464 252.495 73.5789 251.102 71.9905Z" fill="#636365"/>
<path d="M262.574 86.7356L261.076 84.3279L283.705 70.2298L285.203 72.6374L269.699 82.2969L269.749 82.3774L282.186 83.9369L283.887 86.668L274.501 85.366L268.941 96.9551L267.283 94.2916L271.952 85.0393L266.67 84.1831L262.574 86.7356Z" fill="#636365"/>
<path d="M273.655 107.551L272.485 104.933L289.031 97.5344L290.201 100.153L273.655 107.551ZM293.125 97.3268C292.891 96.8038 292.864 96.3033 293.048 95.8269C293.234 95.3602 293.604 95.0029 294.155 94.755C294.659 94.5297 295.148 94.504 295.621 94.6762C296.088 94.8629 296.438 95.2169 296.672 95.74C296.91 96.2727 296.941 96.7716 296.765 97.2351C296.578 97.7018 296.234 98.0478 295.729 98.2731C295.177 98.5194 294.663 98.558 294.19 98.3858C293.717 98.2136 293.361 97.8611 293.125 97.3268Z" fill="#636365"/>
<path d="M278.459 121.371L277.585 118.641L294.847 113.116L295.721 115.847L278.459 121.371ZM298.939 113.363C298.764 112.817 298.795 112.317 299.028 111.863C299.265 111.419 299.672 111.105 300.248 110.92C300.774 110.751 301.262 110.78 301.712 111.003C302.157 111.24 302.466 111.633 302.639 112.178C302.818 112.735 302.792 113.232 302.567 113.673C302.33 114.117 301.949 114.423 301.423 114.591C300.847 114.776 300.333 114.755 299.881 114.533C299.43 114.309 299.116 113.919 298.939 113.363Z" fill="#636365"/>
<path d="M7.22125 204.183L6.37955 201.143L32.0764 194.034L32.9165 197.074L7.22125 204.183Z" fill="#636365"/>
<path d="M6.71108 226.862C5.69074 224.656 5.27713 222.676 5.47347 220.923C5.67303 219.181 6.55014 217.951 8.09997 217.235C8.88051 216.874 9.72543 216.763 10.6331 216.905C11.5553 217.051 12.4662 217.402 13.3658 217.957L13.5252 217.883C13.5944 217.325 13.7988 216.779 14.1383 216.248C14.4779 215.717 15.0042 215.286 15.7155 214.958C16.4671 214.61 17.2332 214.52 18.0121 214.686C18.7814 214.856 19.4219 215.091 19.9353 215.392L20.0801 215.324C20.2668 214.513 20.6724 213.683 21.2968 212.832C21.9068 211.975 22.742 211.303 23.8026 210.813C25.103 210.211 26.3712 209.994 27.6056 210.16C28.84 210.326 29.9569 210.792 30.9547 211.559C31.938 212.32 32.7073 213.298 33.2609 214.492C33.4927 214.993 33.6632 215.476 33.7727 215.941C33.887 216.414 33.9529 216.834 33.969 217.201L36.8514 223.431L34.682 224.434L32.9503 220.69C32.7218 221.334 32.342 221.953 31.8109 222.551C31.2798 223.148 30.628 223.624 29.8571 223.981C28.5857 224.57 27.3481 224.791 26.1459 224.644C24.9533 224.495 23.875 224.046 22.9094 223.299C21.9534 222.547 21.1922 221.561 20.6257 220.338C20.4245 219.905 20.2636 219.428 20.1429 218.912C20.0302 218.39 19.9804 217.875 19.99 217.367C19.5732 217.174 19.1403 217.035 18.6913 216.95C18.2471 216.874 17.7739 216.953 17.2734 217.185C16.6763 217.462 16.2981 217.911 16.142 218.534C15.9811 219.147 16.1838 220.064 16.7487 221.287L18.3806 224.815C19.3398 226.886 19.7148 228.597 19.5072 229.944C19.2996 231.291 18.4643 232.305 16.9998 232.983C15.9006 233.491 14.7145 233.594 13.4415 233.295C12.1781 232.991 10.9486 232.295 9.75601 231.209C8.5683 230.132 7.55278 228.684 6.71108 226.862ZM22.5199 219.461C23.0189 220.54 23.8429 221.282 24.9887 221.688C26.1298 222.108 27.3658 222.01 28.6967 221.395C30.0454 220.771 30.9225 219.897 31.3264 218.773C31.7304 217.65 31.6821 216.544 31.1784 215.456C30.6746 214.367 29.8667 213.619 28.7531 213.208C27.6442 212.809 26.4146 212.922 25.066 213.546C23.7366 214.161 22.8595 215.035 22.4347 216.166C22.0049 217.312 22.0339 218.411 22.5199 219.461ZM8.86442 226.321C9.40839 227.498 10.0618 228.43 10.8246 229.117C11.5778 229.809 12.3503 230.266 13.1421 230.485C13.9291 230.694 14.6453 230.649 15.2906 230.351C16.1484 229.954 16.6055 229.374 16.6618 228.611C16.7085 227.853 16.451 226.867 15.8893 225.652L14.4119 222.457C14.2606 222.129 14.111 221.754 13.9613 221.331C13.8229 220.904 13.7054 220.46 13.6105 220.003C12.8492 219.547 12.1331 219.3 11.4587 219.259C10.7715 219.214 10.1584 219.317 9.61922 219.568C8.64555 220.019 8.08387 220.84 7.9342 222.032C7.78775 223.235 8.09836 224.664 8.86442 226.321Z" fill="#636365"/>
<path d="M28.8464 247.486C27.9291 246.184 27.406 244.741 27.2773 243.155C27.1421 241.562 27.4575 239.982 28.2236 238.417C28.9993 236.845 30.2771 235.432 32.0571 234.178C33.8532 232.912 35.6235 232.179 37.3632 231.978C39.1142 231.771 40.7155 231.999 42.172 232.662C43.6285 233.311 44.8162 234.286 45.7335 235.588C46.6638 236.908 47.1949 238.371 47.3268 239.98C47.462 241.573 47.1369 243.159 46.3532 244.737C45.5839 246.318 44.3012 247.742 42.5035 249.007C40.7236 250.261 38.9613 250.983 37.2135 251.176C35.4802 251.371 33.887 251.136 32.4321 250.473C30.9708 249.8 29.7766 248.804 28.8464 247.486ZM30.9563 245.999C31.9718 247.44 33.3687 248.196 35.1455 248.27C36.9383 248.344 38.7762 247.718 40.6608 246.39C42.5615 245.051 43.7782 243.524 44.3109 241.812C44.8597 240.101 44.6247 238.525 43.6108 237.083C42.9558 236.155 42.1028 235.516 41.0519 235.166C40.0154 234.819 38.8776 234.782 37.6416 235.055C36.4088 235.314 35.1584 235.889 33.8902 236.782C32.0072 238.11 30.7986 239.629 30.2659 241.343C29.7348 243.041 29.9649 244.594 30.9563 245.999Z" fill="#636365"/>
<path d="M44.776 265.704L42.5824 263.483L56.5936 249.656L58.417 251.503L56.0899 254.225L56.1349 254.27C57.5045 253.903 58.7888 253.8 59.9894 253.957C61.19 254.131 62.1813 254.614 62.9635 255.406C63.5606 256.011 63.9501 256.595 64.1351 257.16L61.7613 258.541C61.6197 258.277 61.4797 258.044 61.338 257.839C61.19 257.628 60.9695 257.376 60.6782 257.081C60.0972 256.492 59.2362 256.111 58.0951 255.937C56.9557 255.765 55.5379 256.037 53.8448 256.755L44.776 265.704Z" fill="#636365"/>
<path d="M79.7235 291.437L73.8171 288.198L86.6309 264.819L92.3989 267.982C95.9927 269.951 98.1718 272.46 98.9362 275.505C99.6862 278.555 99.0505 281.925 97.0291 285.612C95.0029 289.309 92.4939 291.688 89.5037 292.747C86.5135 293.807 83.2529 293.371 79.7235 291.437ZM88.1486 268.611L77.8293 287.437L80.6087 288.961C83.4025 290.492 85.9502 290.793 88.2516 289.863C90.5578 288.947 92.5245 287.004 94.1515 284.035C95.7738 281.074 96.3387 278.399 95.8462 276.009C95.3618 273.624 93.7218 271.667 90.928 270.135L88.1486 268.611Z" fill="#636365"/>
<path d="M114.504 305.366L100.325 300.921L100.821 299.34L115.569 287.757L106.571 284.936L107.339 282.49L120.09 286.486L119.594 288.068L104.883 299.696L115.262 302.95L114.504 305.366Z" fill="#636365"/>
<path d="M128.016 308.113L124.949 307.541L128.554 288.189L131.623 288.76L128.016 308.113ZM130.91 284.415C130.293 284.301 129.828 284.014 129.514 283.555C129.21 283.1 129.118 282.548 129.239 281.901C129.349 281.317 129.627 280.866 130.074 280.549C130.53 280.245 131.067 280.15 131.682 280.266C132.299 280.38 132.759 280.66 133.065 281.108C133.369 281.563 133.465 282.084 133.357 282.669C133.237 283.316 132.954 283.797 132.505 284.114C132.057 284.429 131.524 284.531 130.91 284.415Z" fill="#636365"/>
<path d="M148.959 310.162C147.229 310.096 145.685 309.634 144.325 308.774C142.977 307.915 141.927 306.706 141.179 305.148C140.431 303.579 140.099 301.708 140.181 299.533C140.265 297.336 140.77 295.486 141.699 293.981C142.627 292.465 143.818 291.33 145.27 290.577C146.733 289.814 148.297 289.465 149.965 289.528C151.27 289.578 152.375 289.843 153.282 290.324C154.188 290.815 154.978 291.398 155.654 292.072L153.988 293.954C153.467 293.424 152.871 292.993 152.205 292.658C151.548 292.336 150.816 292.159 150.01 292.129C148.79 292.082 147.689 292.37 146.709 292.991C145.729 293.603 144.942 294.481 144.346 295.627C143.751 296.764 143.424 298.106 143.365 299.654C143.278 301.957 143.785 303.84 144.887 305.306C145.98 306.761 147.465 307.524 149.342 307.595C150.275 307.63 151.147 307.488 151.957 307.168C152.767 306.838 153.484 306.409 154.109 305.879L155.403 307.905C153.536 309.503 151.387 310.255 148.959 310.162Z" fill="#636365"/>
<path d="M169.49 308.581L166.395 308.982L162.672 280.267L165.767 279.867L166.791 287.764L167.209 291.853C168.028 290.827 168.918 289.924 169.877 289.146C170.838 288.379 171.992 287.909 173.341 287.735C175.383 287.469 176.963 287.923 178.077 289.095C179.202 290.255 179.926 292.083 180.25 294.58L181.858 306.978L178.793 307.376L177.237 295.371C176.997 293.517 176.527 292.203 175.826 291.427C175.114 290.651 174.081 290.352 172.723 290.529C171.712 290.659 170.837 291.047 170.095 291.688C169.353 292.33 168.538 293.223 167.647 294.366L169.49 308.581Z" fill="#636365"/>
<path d="M197.699 302.374L194.768 303.354L185.578 275.896L188.509 274.915L194.807 293.735L194.913 293.699L199.697 280.945L202.99 279.844L199.265 289.438L210.099 298.223L206.866 299.305L198.27 292.038L196.036 297.404L197.699 302.374Z" fill="#636365"/>
<path d="M226.428 290.146C225.035 290.918 223.544 291.285 221.955 291.245C220.357 291.21 218.82 290.727 217.344 289.798C215.864 288.86 214.595 287.439 213.538 285.535C212.471 283.613 211.93 281.775 211.917 280.023C211.898 278.261 212.296 276.691 213.11 275.315C213.91 273.936 215.007 272.86 216.4 272.087C217.811 271.303 219.322 270.931 220.936 270.97C222.534 271.006 224.076 271.498 225.562 272.446C227.052 273.379 228.33 274.807 229.398 276.728C230.456 278.631 230.985 280.462 230.99 282.221C231 283.966 230.596 285.525 229.781 286.9C228.957 288.281 227.839 289.362 226.428 290.146ZM225.175 287.891C226.716 287.035 227.617 285.728 227.879 283.966C228.145 282.191 227.718 280.296 226.6 278.283C225.472 276.25 224.083 274.878 222.436 274.165C220.793 273.437 219.201 273.502 217.66 274.356C216.667 274.908 215.939 275.687 215.481 276.696C215.025 277.691 214.866 278.816 215.006 280.074C215.131 281.328 215.571 282.633 216.324 283.988C217.442 286.003 218.825 287.366 220.471 288.079C222.103 288.787 223.672 288.725 225.175 287.891Z" fill="#636365"/>
<path d="M249.971 272.924L247.198 275.246L229.091 264.732L231.558 262.667L241.781 268.897C242.636 269.456 243.492 270.006 244.348 270.55C245.211 271.102 246.067 271.644 246.916 272.179L247.05 272.066C246.664 271.142 246.281 270.204 245.898 269.251C245.521 268.307 245.13 267.367 244.723 266.433L240.387 255.276L242.719 253.322L249.971 272.924Z" fill="#636365"/>
<path d="M266.325 257.289C265.363 258.393 264.286 259.259 263.095 259.882C261.888 260.506 260.665 260.87 259.423 260.97L258.993 258.675C260.073 258.502 261.066 258.185 261.975 257.723C262.885 257.262 263.75 256.558 264.573 255.615C265.437 254.622 265.849 253.665 265.809 252.741C265.769 251.819 265.419 251.07 264.763 250.499C264.243 250.045 263.667 249.833 263.038 249.862C262.407 249.891 261.745 250.06 261.052 250.372C260.364 250.674 259.671 251.027 258.969 251.429C258.055 251.928 257.128 252.353 256.19 252.704C255.25 253.055 254.328 253.208 253.422 253.166C252.507 253.116 251.646 252.739 250.837 252.034C249.677 251.024 249.071 249.728 249.023 248.151C248.981 246.566 249.662 244.969 251.064 243.36C251.865 242.439 252.762 241.726 253.751 241.223C254.748 240.725 255.731 240.399 256.697 240.241L257.134 242.502C256.306 242.695 255.541 242.98 254.846 243.36C254.157 243.732 253.515 244.256 252.923 244.937C252.071 245.914 251.679 246.825 251.745 247.67C251.802 248.508 252.115 249.176 252.684 249.672C253.389 250.285 254.183 250.449 255.066 250.163C255.95 249.876 256.949 249.43 258.068 248.827C259.024 248.28 259.985 247.806 260.95 247.409C261.916 247.011 262.875 246.833 263.825 246.873C264.769 246.921 265.701 247.346 266.622 248.148C267.814 249.187 268.442 250.536 268.503 252.195C268.558 253.863 267.832 255.56 266.325 257.289Z" fill="#636365"/>
<path d="M278.726 239.645L277.099 242.272L252.483 227.025L254.11 224.398L270.981 234.848L271.039 234.753L266.57 221.887L268.398 218.936L271.664 228.695L285.611 228.529L283.816 231.428L272.56 231.331L274.271 236.887L278.726 239.645Z" fill="#636365"/>
<path d="M291.06 216.44L289.787 219.29L271.813 211.259L273.088 208.409L291.06 216.44ZM268.696 208.086C268.44 208.657 268.054 209.043 267.534 209.241C267.019 209.429 266.462 209.389 265.86 209.122C265.318 208.879 264.945 208.504 264.742 207.994C264.554 207.479 264.587 206.936 264.843 206.363C265.099 205.792 265.479 205.409 265.983 205.216C266.498 205.028 267.026 205.053 267.57 205.298C268.17 205.567 268.572 205.956 268.775 206.465C268.978 206.973 268.952 207.514 268.696 208.086Z" fill="#636365"/>
<path d="M296.379 201.313L295.415 204.283L276.693 198.201L277.657 195.231L296.379 201.313ZM273.255 195.376C273.062 195.972 272.718 196.397 272.222 196.649C271.73 196.891 271.171 196.912 270.547 196.707C269.982 196.524 269.572 196.189 269.314 195.703C269.073 195.211 269.047 194.668 269.242 194.073C269.435 193.477 269.773 193.056 270.254 192.811C270.746 192.57 271.274 192.539 271.841 192.722C272.467 192.925 272.908 193.27 273.162 193.756C273.418 194.24 273.449 194.781 273.255 195.376Z" fill="#636365"/>
<path d="M0 158.309C0 152.684 4.55935 148.125 10.1857 148.125C15.8105 148.125 20.3698 152.684 20.3698 158.309C20.3698 163.934 15.8105 168.493 10.1857 168.493C4.56096 168.493 0.00160937 163.934 0 158.309Z" fill="#636365"/>
<path d="M282.397 158.309C282.397 152.684 286.956 148.125 292.581 148.125C298.206 148.125 302.765 152.684 302.767 158.309C302.767 163.934 298.207 168.493 292.581 168.493C286.956 168.493 282.397 163.934 282.397 158.309Z" fill="#636365"/>
</svg>
