<svg width="311" height="311" viewBox="0 0 311 311" fill="none" xmlns="http://www.w3.org/2000/svg">
<g clip-path="url(#clip0_1_4)">
<g clip-path="url(#clip1_1_4)">
<path d="M215.226 82.6438H96.4259C88.8867 82.6438 82.7182 88.8122 82.7182 96.3515V215.152C82.7182 222.691 88.8867 228.859 96.4259 228.859H215.226C222.763 228.859 228.934 222.691 228.934 215.152V96.3515C228.934 88.8122 222.763 82.6438 215.226 82.6438ZM198.788 99.2872H212.464V110.509H198.788V99.2872ZM99.188 99.2872H153.898V110.509H99.188V99.2872ZM213.691 210.836H97.9589V125.24H213.691V210.836Z" fill="#636365"/>
<path d="M136.777 178.086L115.295 165.034L136.777 152.448V139.062L105.976 159.494V170.855L136.777 191.375V178.086Z" fill="#636365"/>
<path d="M205.676 159.494L174.875 139.062V152.448L196.355 165.034L174.875 178.086V191.375L205.676 170.855V159.494Z" fill="#636365"/>
<path d="M168.115 132.764H159.079L143.537 197.676H152.401L168.115 132.764Z" fill="#636365"/>
</g>
</g>
<path d="M47.9403 124.57L47.2955 126.912L27.4481 121.442L28.0943 119.1L47.9403 124.57Z" fill="#636365"/>
<path d="M59.9687 113.832C59.1781 115.545 58.2217 116.779 57.0979 117.536C55.966 118.289 54.8031 118.389 53.6065 117.836C53.0089 117.559 52.5205 117.119 52.1441 116.514C51.7704 115.9 51.5209 115.187 51.3968 114.375L51.2753 114.319C50.9084 114.561 50.4848 114.714 50.0045 114.777C49.5243 114.841 49.0103 114.745 48.4612 114.49C47.8798 114.222 47.4427 113.819 47.1513 113.283C46.868 112.75 46.6831 112.257 46.5968 111.807L46.4875 111.757C45.9196 112.054 45.2302 112.23 44.4194 112.287C43.6046 112.352 42.7897 112.197 41.9736 111.82C40.9712 111.357 40.2063 110.721 39.6802 109.909C39.1608 109.1 38.8788 108.215 38.833 107.254C38.7911 106.284 38.9827 105.338 39.4063 104.415C39.5857 104.027 39.784 103.683 40.0012 103.382C40.2225 103.092 40.4383 102.849 40.6474 102.651L42.8693 97.8385L44.5422 98.6102L43.2039 101.507C43.6923 101.32 44.2467 101.233 44.8687 101.246C45.4825 101.254 46.0882 101.397 46.6858 101.673C47.672 102.127 48.4221 102.744 48.9361 103.521C49.4501 104.298 49.7253 105.154 49.763 106.093C49.8008 107.032 49.6012 107.974 49.1654 108.92C49.0089 109.26 48.8066 109.592 48.557 109.918C48.3088 110.244 48.0389 110.532 47.7475 110.78C47.8339 111.124 47.9634 111.448 48.1361 111.753C48.3209 112.054 48.6029 112.292 48.9833 112.468C49.4433 112.681 49.8952 112.678 50.3391 112.461C50.7829 112.244 51.2227 111.662 51.6585 110.717L52.9117 108.001C53.6497 106.401 54.4713 105.324 55.3724 104.771C56.2709 104.225 57.2868 104.214 58.4186 104.735C59.2591 105.123 59.908 105.766 60.3667 106.664C60.8253 107.561 61.0371 108.63 61.0034 109.869C60.9589 111.113 60.6135 112.434 59.9687 113.832ZM47.6976 108.242C48.0781 107.418 48.105 106.563 47.7786 105.677C47.4521 104.79 46.7762 104.112 45.7496 103.638C44.7068 103.157 43.753 103.08 42.8869 103.405C42.0208 103.73 41.3935 104.314 41.0063 105.154C40.6178 105.995 40.5827 106.846 40.9011 107.708C41.2221 108.562 41.9048 109.23 42.9476 109.71C43.9742 110.184 44.928 110.262 45.8103 109.944C46.6926 109.625 47.3212 109.059 47.6976 108.242ZM58.5589 112.843C58.9771 111.938 59.2024 111.086 59.2375 110.289C59.2685 109.5 59.1471 108.816 58.8746 108.24C58.598 107.67 58.2136 107.273 57.7198 107.045C57.0574 106.738 56.4881 106.76 56.0132 107.111C55.5424 107.472 55.0932 108.117 54.6642 109.047L53.5229 111.519C53.4069 111.77 53.2612 112.045 53.0831 112.345C52.905 112.646 52.7026 112.935 52.4774 113.212C52.5893 113.882 52.8025 114.431 53.1141 114.858C53.4379 115.282 53.8062 115.589 54.2176 115.78C54.9691 116.126 55.7326 116.043 56.5097 115.529C57.2868 115.015 57.9707 114.119 58.5589 112.843Z" fill="#636365"/>
<path d="M64.2682 93.4582C63.5626 94.4632 62.6493 95.2254 61.5256 95.7421C60.4072 96.2521 59.1768 96.4329 57.8345 96.2845C56.4922 96.1361 55.1324 95.5803 53.7563 94.6143C52.3641 93.6376 51.3671 92.5422 50.7628 91.324C50.1597 90.1071 49.9061 88.8862 50.0046 87.6626C50.1004 86.4255 50.501 85.3044 51.2066 84.298C51.9216 83.2782 52.8457 82.5119 53.9762 82.0006C55.1 81.4839 56.3357 81.3018 57.6848 81.4542C59.0338 81.6067 60.4045 82.1719 61.7967 83.1473C63.1741 84.1132 64.1603 85.2019 64.7579 86.4134C65.3542 87.6248 65.6011 88.8471 65.4972 90.0801C65.3947 91.3118 64.9846 92.4383 64.2682 93.4582ZM62.6399 92.3155C63.4169 91.2079 63.5991 89.9938 63.1889 88.6731C62.7734 87.3591 61.8358 86.1921 60.3789 85.1695C58.907 84.1375 57.4784 83.6464 56.0956 83.6977C54.7061 83.7557 53.6241 84.3399 52.8471 85.4474C52.3412 86.1692 52.0997 86.9557 52.1199 87.8083C52.1415 88.6609 52.41 89.496 52.9239 90.3122C53.4406 91.1418 54.1907 91.9014 55.1742 92.5921C56.6312 93.6147 58.049 94.0976 59.4251 94.0396C60.8065 93.9762 61.879 93.4015 62.6399 92.3155Z" fill="#636365"/>
<path d="M75.315 79.6938L73.63 81.4085L62.793 70.7603L64.1973 69.3317L66.3181 71.0976L66.3545 71.0585C66.0496 70.0102 65.9525 69.0227 66.0644 68.0973C66.1818 67.1651 66.5434 66.3907 67.1491 65.7742C67.6051 65.3101 68.0516 65.0012 68.4901 64.8474L69.5828 66.6686C69.3764 66.7779 69.1983 66.8885 69.0472 67.0045C68.884 67.1192 68.6911 67.2905 68.4671 67.5185C68.0179 67.9759 67.7346 68.645 67.6159 69.5273C67.4971 70.4096 67.7278 71.5023 68.3052 72.8069L75.315 79.6938Z" fill="#636365"/>
<path d="M101.182 60.625L96.6266 63.1181L86.7434 45.0582L91.1939 42.6231C93.973 41.1027 96.5133 40.7277 98.8121 41.498C101.107 42.2818 103.035 44.0977 104.594 46.9482C106.158 49.8055 106.664 52.4254 106.11 54.8079C105.549 57.1943 103.907 59.133 101.182 60.625ZM89.8368 45.6491L97.7962 60.1947L99.952 59.0156C102.1 57.8405 103.353 56.3121 103.713 54.4315C104.069 52.5428 103.621 50.4531 102.37 48.1664C101.118 45.8784 99.6134 44.3985 97.8556 43.7267C96.0937 43.0467 94.1389 43.295 91.9912 44.47L89.8368 45.6491Z" fill="#636365"/>
<path d="M126.701 50.4177L115.765 53.87L115.379 52.6477L119.591 38.8023L112.652 40.9918L112.057 39.1072L121.899 36.0016L122.285 37.2239L118.103 51.0733L126.111 48.5466L126.701 50.4177Z" fill="#636365"/>
<path d="M136.844 48.3967L134.482 48.8324L131.722 33.8929L134.086 33.4558L136.844 48.3967ZM132.362 30.5162C131.889 30.6039 131.477 30.5257 131.124 30.2828C130.78 30.0387 130.563 29.6677 130.47 29.1685C130.387 28.7139 130.461 28.3105 130.695 27.9597C130.94 27.6157 131.298 27.3999 131.771 27.3122C132.252 27.2232 132.664 27.296 133.005 27.5321C133.349 27.7763 133.562 28.1257 133.647 28.5817C133.739 29.0808 133.669 29.5058 133.434 29.8565C133.201 30.2073 132.843 30.4272 132.362 30.5162Z" fill="#636365"/>
<path d="M152.344 47.6633C151.01 47.7105 149.794 47.4407 148.696 46.8552C147.608 46.2697 146.731 45.3969 146.067 44.2353C145.403 43.0738 145.042 41.6532 144.982 39.971C144.923 38.2725 145.21 36.8142 145.846 35.6C146.472 34.3845 147.324 33.4469 148.405 32.7859C149.485 32.1154 150.671 31.7579 151.961 31.712C152.975 31.677 153.844 31.82 154.567 32.1424C155.29 32.4648 155.929 32.8695 156.48 33.3579L155.319 34.8945C154.878 34.5181 154.391 34.2186 153.858 33.9973C153.334 33.7842 152.761 33.6884 152.138 33.71C151.195 33.7424 150.364 34.0257 149.643 34.5585C148.923 35.0914 148.368 35.8091 147.981 36.7143C147.586 37.6277 147.409 38.6853 147.451 39.886C147.513 41.6654 148.008 43.0859 148.935 44.149C149.863 45.2121 151.048 45.718 152.488 45.668C153.218 45.6424 153.885 45.4819 154.489 45.1837C155.093 44.8775 155.618 44.5079 156.066 44.0735L157.187 45.5574C155.835 46.8957 154.222 47.5986 152.344 47.6633Z" fill="#636365"/>
<path d="M167.175 48.1379L164.792 47.8223L167.725 25.6666L170.108 25.9823L169.302 32.0706L168.794 35.195C169.618 34.5947 170.464 34.105 171.331 33.7259C172.2 33.3387 173.154 33.2133 174.197 33.3509C175.767 33.5586 176.853 34.2102 177.452 35.3043C178.062 36.3998 178.238 37.9094 177.984 39.8318L176.717 49.4007L174.361 49.089L175.588 39.825C175.776 38.395 175.682 37.3185 175.302 36.5954C174.929 35.8817 174.218 35.4554 173.169 35.3165C172.392 35.2139 171.663 35.3286 170.982 35.6591C170.302 35.9815 169.517 36.4847 168.628 37.166L167.175 48.1379Z" fill="#636365"/>
<path d="M187.586 52.6521L185.333 51.898L192.434 30.707L194.688 31.4624L189.822 45.981L189.897 46.0066L198.769 40.377L201.325 41.2337L194.564 45.4023L197.157 55.8588L194.664 55.0238L192.743 46.5517L188.872 48.8167L187.586 52.6521Z" fill="#636365"/>
<path d="M208.277 62.2304C207.203 61.6355 206.349 60.8071 205.716 59.7454C205.091 58.6878 204.781 57.4831 204.787 56.1326C204.792 54.7822 205.202 53.3711 206.017 51.8993C206.84 50.4126 207.825 49.3037 208.971 48.5752C210.118 47.8467 211.305 47.4663 212.533 47.4352C213.774 47.4002 214.932 47.6794 216.005 48.2744C217.095 48.8774 217.955 49.7152 218.582 50.785C219.215 51.848 219.526 53.0581 219.517 54.4153C219.508 55.7738 219.091 57.1957 218.268 58.6837C217.453 60.1555 216.475 61.251 215.334 61.9727C214.192 62.6931 213.002 63.0682 211.765 63.0952C210.53 63.1221 209.367 62.8348 208.277 62.2304ZM209.24 60.4901C210.423 61.1458 211.651 61.1997 212.92 60.652C214.183 60.1002 215.244 59.0453 216.108 57.4871C216.979 55.9141 217.315 54.4423 217.118 53.0716C216.913 51.6969 216.219 50.6811 215.035 50.0254C214.265 49.5991 213.457 49.4413 212.611 49.5533C211.765 49.6652 210.964 50.0201 210.206 50.6177C209.435 51.2194 208.76 52.045 208.177 53.0959C207.315 54.6527 206.984 56.1138 207.187 57.4763C207.396 58.8443 208.081 59.848 209.24 60.4901Z" fill="#636365"/>
<path d="M225.748 74.0858L223.602 72.301L229.079 57.0957L230.988 58.6836L227.675 67.3014C227.368 68.0313 227.066 68.7571 226.765 69.4801C226.466 70.2154 226.176 70.9412 225.894 71.6548L225.996 71.7398C226.635 71.3216 227.29 70.9007 227.966 70.4785C228.635 70.0629 229.295 69.6326 229.943 69.1874L237.824 64.3685L239.63 65.8714L225.748 74.0858Z" fill="#636365"/>
<path d="M237.228 86.0126C236.483 85.1627 235.935 84.2467 235.583 83.2646C235.233 82.2825 235.079 81.3112 235.123 80.3479L236.927 80.2589C236.954 81.0994 237.093 81.8872 237.348 82.6238C237.602 83.3725 238.047 84.1118 238.686 84.8416C239.361 85.612 240.051 86.0288 240.761 86.0949C241.469 86.161 242.078 85.9708 242.586 85.5256C242.988 85.1735 243.211 84.754 243.257 84.2643C243.295 83.7813 243.233 83.2565 243.068 82.6899C242.909 82.13 242.713 81.5621 242.48 80.986C242.195 80.2414 241.963 79.4913 241.788 78.7358C241.618 77.9736 241.596 77.2478 241.723 76.5557C241.851 75.8636 242.229 75.2431 242.859 74.6913C243.749 73.9116 244.801 73.5864 246.017 73.7173C247.238 73.8549 248.387 74.5402 249.467 75.7719C250.088 76.4815 250.542 77.2437 250.829 78.0572C251.11 78.864 251.259 79.6505 251.278 80.414L249.484 80.5125C249.427 79.8528 249.291 79.2377 249.077 78.6697C248.862 78.1004 248.529 77.5581 248.077 77.0427C247.415 76.2859 246.759 75.8893 246.113 75.8529C245.46 75.8097 244.916 75.9783 244.48 76.3601C243.931 76.8404 243.722 77.4326 243.852 78.1341C243.981 78.837 244.219 79.6464 244.561 80.5651C244.881 81.3489 245.145 82.1368 245.351 82.926C245.558 83.703 245.593 84.4531 245.457 85.1762C245.328 85.8926 244.908 86.5617 244.198 87.1836C243.274 87.9931 242.174 88.3303 240.896 88.1941C239.617 88.0713 238.395 87.3442 237.228 86.0126Z" fill="#636365"/>
<path d="M246.844 98.3729L245.588 96.3547L264.557 84.5369L265.813 86.5551L252.816 94.6522L252.858 94.7196L263.284 96.0269L264.71 98.3162L256.842 97.2248L252.181 106.939L250.791 104.707L254.705 96.951L250.277 96.2333L246.844 98.3729Z" fill="#636365"/>
<path d="M256.132 115.822L255.152 113.627L269.021 107.425L270.002 109.62L256.132 115.822ZM272.453 107.251C272.258 106.813 272.235 106.393 272.389 105.994C272.545 105.603 272.855 105.303 273.317 105.096C273.739 104.907 274.149 104.885 274.546 105.029C274.937 105.186 275.231 105.483 275.427 105.921C275.626 106.368 275.652 106.786 275.505 107.175C275.348 107.566 275.06 107.856 274.636 108.045C274.173 108.251 273.743 108.283 273.346 108.139C272.95 107.995 272.652 107.699 272.453 107.251Z" fill="#636365"/>
<path d="M260.159 127.406L259.427 125.118L273.897 120.486L274.629 122.776L260.159 127.406ZM277.328 120.693C277.181 120.235 277.206 119.816 277.402 119.435C277.6 119.063 277.941 118.8 278.424 118.645C278.866 118.503 279.274 118.528 279.652 118.715C280.024 118.913 280.283 119.243 280.429 119.7C280.579 120.167 280.557 120.583 280.368 120.953C280.17 121.325 279.85 121.582 279.409 121.722C278.926 121.877 278.496 121.86 278.117 121.674C277.739 121.486 277.476 121.16 277.328 120.693Z" fill="#636365"/>
<path d="M32.7942 196.823L32.0887 194.275L53.6291 188.316L54.3333 190.864L32.7942 196.823Z" fill="#636365"/>
<path d="M32.3669 215.834C31.5116 213.985 31.1649 212.325 31.3295 210.856C31.4968 209.395 32.232 208.364 33.5311 207.764C34.1854 207.462 34.8937 207.369 35.6546 207.487C36.4276 207.61 37.1912 207.904 37.9453 208.37L38.0788 208.308C38.1368 207.84 38.3082 207.382 38.5928 206.937C38.8775 206.492 39.3186 206.13 39.9149 205.855C40.5449 205.564 41.1871 205.488 41.84 205.627C42.4849 205.77 43.0218 205.967 43.4521 206.219L43.5736 206.163C43.7301 205.483 44.07 204.787 44.5935 204.073C45.1047 203.355 45.8049 202.791 46.6939 202.381C47.784 201.877 48.847 201.695 49.8818 201.834C50.9165 201.972 51.8528 202.364 52.6892 203.006C53.5135 203.644 54.1583 204.464 54.6224 205.465C54.8166 205.885 54.9596 206.289 55.0514 206.679C55.1472 207.076 55.2025 207.428 55.216 207.736L57.6321 212.958L55.8136 213.798L54.362 210.66C54.1704 211.2 53.8521 211.719 53.4069 212.22C52.9617 212.72 52.4153 213.12 51.7691 213.419C50.7034 213.913 49.6659 214.098 48.6582 213.975C47.6585 213.85 46.7547 213.473 45.9452 212.847C45.1439 212.217 44.5058 211.39 44.0309 210.365C43.8623 210.002 43.7274 209.603 43.6262 209.17C43.5317 208.733 43.4899 208.301 43.498 207.875C43.1486 207.713 42.7857 207.597 42.4093 207.525C42.037 207.462 41.6404 207.528 41.2208 207.722C40.7203 207.954 40.4033 208.331 40.2724 208.853C40.1375 209.367 40.3075 210.136 40.781 211.161L42.149 214.118C42.953 215.854 43.2673 217.288 43.0933 218.418C42.9193 219.547 42.2191 220.397 40.9915 220.965C40.0701 221.391 39.0758 221.477 38.0087 221.226C36.9497 220.971 35.919 220.389 34.9193 219.478C33.9237 218.575 33.0725 217.361 32.3669 215.834ZM45.6187 209.63C46.037 210.535 46.7277 211.157 47.6882 211.497C48.6447 211.849 49.6808 211.767 50.7964 211.251C51.927 210.728 52.6622 209.995 53.0008 209.054C53.3394 208.112 53.299 207.185 52.8767 206.273C52.4544 205.36 51.7772 204.733 50.8437 204.389C49.9142 204.054 48.8835 204.148 47.753 204.672C46.6386 205.187 45.9034 205.92 45.5472 206.868C45.187 207.829 45.2113 208.75 45.6187 209.63ZM34.172 215.381C34.6279 216.367 35.1757 217.148 35.8151 217.724C36.4465 218.304 37.094 218.687 37.7578 218.871C38.4175 219.046 39.0178 219.008 39.5588 218.759C40.2778 218.426 40.6609 217.94 40.7082 217.301C40.7473 216.665 40.5314 215.838 40.0606 214.82L38.8222 212.142C38.6954 211.866 38.5699 211.552 38.4444 211.197C38.3284 210.84 38.2299 210.468 38.1503 210.084C37.5122 209.703 36.9119 209.495 36.3466 209.461C35.7706 209.423 35.2566 209.51 34.8047 209.72C33.9885 210.098 33.5177 210.786 33.3922 211.786C33.2694 212.793 33.5298 213.991 34.172 215.381Z" fill="#636365"/>
<path d="M50.9217 233.123C50.1527 232.031 49.7143 230.821 49.6064 229.492C49.493 228.157 49.7575 226.832 50.3996 225.521C51.0499 224.203 52.121 223.018 53.6131 221.967C55.1186 220.906 56.6026 220.292 58.0609 220.123C59.5287 219.949 60.871 220.141 62.0919 220.697C63.3128 221.24 64.3084 222.058 65.0774 223.149C65.8572 224.255 66.3024 225.482 66.413 226.831C66.5263 228.166 66.2538 229.495 65.5968 230.819C64.9519 232.143 63.8767 233.337 62.3698 234.398C60.8778 235.449 59.4006 236.054 57.9355 236.216C56.4825 236.379 55.147 236.182 53.9274 235.627C52.7025 235.063 51.7015 234.228 50.9217 233.123ZM52.6903 231.876C53.5416 233.084 54.7126 233.718 56.2019 233.78C57.7048 233.842 59.2454 233.317 60.8252 232.204C62.4184 231.082 63.4383 229.801 63.8848 228.366C64.3449 226.932 64.1479 225.611 63.298 224.402C62.7489 223.624 62.0339 223.088 61.153 222.796C60.2842 222.504 59.3304 222.473 58.2943 222.703C57.2609 222.92 56.2127 223.401 55.1497 224.15C53.5713 225.263 52.5581 226.537 52.1116 227.973C51.6664 229.397 51.8593 230.698 52.6903 231.876Z" fill="#636365"/>
<path d="M64.2741 248.394L62.4353 246.532L74.1803 234.941L75.7088 236.49L73.758 238.771L73.7958 238.809C74.9438 238.501 76.0204 238.415 77.0268 238.547C78.0332 238.693 78.8642 239.098 79.5199 239.761C80.0204 240.269 80.3468 240.758 80.502 241.232L78.5121 242.389C78.3934 242.168 78.276 241.972 78.1573 241.801C78.0332 241.624 77.8484 241.413 77.6042 241.166C77.1172 240.672 76.3954 240.352 75.4389 240.206C74.4838 240.062 73.2953 240.29 71.8761 240.892L64.2741 248.394Z" fill="#636365"/>
<path d="M93.57 269.964L88.619 267.25L99.3602 247.652L104.195 250.303C107.208 251.954 109.034 254.057 109.675 256.61C110.304 259.166 109.771 261.991 108.076 265.082C106.378 268.181 104.275 270.174 101.768 271.062C99.2617 271.951 96.5285 271.586 93.57 269.964ZM100.632 250.83L91.9822 266.612L94.312 267.889C96.654 269.172 98.7895 269.424 100.719 268.645C102.652 267.877 104.3 266.249 105.664 263.76C107.024 261.277 107.498 259.035 107.085 257.032C106.679 255.033 105.304 253.392 102.962 252.108L100.632 250.83Z" fill="#636365"/>
<path d="M122.724 281.64L110.839 277.914L111.254 276.589L123.617 266.88L116.074 264.515L116.718 262.464L127.406 265.814L126.991 267.14L114.659 276.887L123.359 279.615L122.724 281.64Z" fill="#636365"/>
<path d="M134.051 283.943L131.48 283.464L134.502 267.241L137.074 267.72L134.051 283.943ZM136.477 264.078C135.96 263.982 135.57 263.742 135.307 263.357C135.052 262.976 134.975 262.513 135.076 261.971C135.168 261.481 135.401 261.103 135.777 260.837C136.158 260.582 136.609 260.503 137.124 260.6C137.641 260.696 138.027 260.93 138.283 261.305C138.538 261.687 138.619 262.124 138.529 262.614C138.427 263.156 138.19 263.56 137.814 263.826C137.439 264.09 136.992 264.175 136.477 264.078Z" fill="#636365"/>
<path d="M151.606 285.66C150.156 285.605 148.862 285.217 147.722 284.497C146.592 283.777 145.712 282.764 145.085 281.458C144.458 280.142 144.18 278.573 144.249 276.751C144.319 274.909 144.742 273.358 145.521 272.097C146.299 270.826 147.298 269.875 148.514 269.243C149.741 268.604 151.052 268.311 152.45 268.364C153.544 268.405 154.47 268.628 155.23 269.031C155.99 269.443 156.652 269.931 157.218 270.497L155.822 272.074C155.385 271.63 154.886 271.268 154.327 270.988C153.777 270.718 153.163 270.569 152.487 270.544C151.465 270.505 150.542 270.746 149.72 271.267C148.899 271.779 148.239 272.516 147.74 273.477C147.241 274.429 146.967 275.554 146.917 276.852C146.844 278.782 147.269 280.361 148.193 281.59C149.109 282.809 150.354 283.449 151.927 283.508C152.71 283.538 153.441 283.419 154.12 283.151C154.798 282.874 155.4 282.514 155.923 282.07L157.008 283.769C155.443 285.108 153.642 285.738 151.606 285.66Z" fill="#636365"/>
<path d="M168.816 284.336L166.221 284.671L163.101 260.601L165.695 260.266L166.553 266.885L166.904 270.313C167.591 269.453 168.337 268.696 169.141 268.044C169.946 267.401 170.913 267.007 172.044 266.861C173.756 266.639 175.081 267.019 176.014 268.001C176.957 268.974 177.564 270.506 177.835 272.599L179.183 282.992L176.614 283.325L175.31 273.262C175.109 271.708 174.715 270.606 174.127 269.956C173.531 269.306 172.664 269.055 171.526 269.203C170.679 269.312 169.945 269.637 169.323 270.174C168.701 270.713 168.018 271.461 167.271 272.419L168.816 284.336Z" fill="#636365"/>
<path d="M192.462 279.132L190.005 279.954L182.302 256.937L184.759 256.115L190.038 271.89L190.127 271.861L194.137 261.169L196.898 260.247L193.774 268.288L202.856 275.653L200.146 276.56L192.941 270.469L191.068 274.966L192.462 279.132Z" fill="#636365"/>
<path d="M216.545 268.882C215.378 269.53 214.127 269.837 212.796 269.804C211.456 269.774 210.168 269.369 208.93 268.591C207.689 267.804 206.626 266.613 205.74 265.017C204.846 263.406 204.392 261.866 204.381 260.397C204.365 258.919 204.699 257.604 205.381 256.451C206.052 255.294 206.972 254.392 208.139 253.744C209.322 253.087 210.588 252.776 211.942 252.808C213.281 252.838 214.574 253.251 215.819 254.045C217.068 254.828 218.139 256.024 219.035 257.635C219.921 259.23 220.365 260.765 220.369 262.239C220.377 263.702 220.039 265.009 219.356 266.161C218.665 267.319 217.728 268.225 216.545 268.882ZM215.495 266.992C216.786 266.274 217.542 265.179 217.761 263.702C217.984 262.214 217.627 260.626 216.689 258.938C215.743 257.234 214.579 256.084 213.199 255.486C211.822 254.876 210.487 254.93 209.195 255.647C208.363 256.109 207.753 256.762 207.368 257.608C206.986 258.442 206.853 259.385 206.97 260.44C207.076 261.491 207.444 262.585 208.075 263.721C209.013 265.41 210.172 266.552 211.552 267.15C212.92 267.744 214.235 267.691 215.495 266.992Z" fill="#636365"/>
<path d="M236.28 254.446L233.956 256.392L218.778 247.579L220.846 245.848L229.415 251.07C230.131 251.538 230.849 252 231.567 252.456C232.29 252.918 233.008 253.373 233.72 253.821L233.832 253.726C233.508 252.952 233.187 252.166 232.866 251.367C232.55 250.575 232.222 249.787 231.881 249.005L228.247 239.652L230.202 238.014L236.28 254.446Z" fill="#636365"/>
<path d="M249.989 241.34C249.182 242.265 248.28 242.991 247.281 243.513C246.27 244.036 245.244 244.341 244.203 244.425L243.843 242.501C244.748 242.357 245.58 242.091 246.343 241.704C247.105 241.317 247.831 240.727 248.52 239.937C249.244 239.104 249.59 238.301 249.556 237.527C249.522 236.754 249.23 236.127 248.679 235.648C248.243 235.267 247.76 235.089 247.233 235.114C246.704 235.138 246.15 235.28 245.568 235.541C244.992 235.795 244.411 236.09 243.822 236.428C243.056 236.846 242.279 237.202 241.493 237.496C240.705 237.79 239.932 237.918 239.172 237.883C238.406 237.841 237.684 237.526 237.006 236.935C236.033 236.088 235.526 235.002 235.485 233.68C235.45 232.351 236.021 231.012 237.196 229.663C237.868 228.892 238.619 228.294 239.449 227.872C240.284 227.455 241.108 227.181 241.918 227.049L242.285 228.944C241.59 229.106 240.949 229.345 240.366 229.663C239.789 229.975 239.251 230.415 238.754 230.985C238.04 231.804 237.711 232.568 237.767 233.276C237.815 233.979 238.077 234.539 238.554 234.954C239.145 235.468 239.81 235.606 240.551 235.366C241.292 235.126 242.129 234.752 243.067 234.246C243.868 233.787 244.674 233.391 245.483 233.058C246.293 232.724 247.097 232.575 247.893 232.608C248.685 232.649 249.466 233.005 250.237 233.677C251.237 234.548 251.763 235.679 251.814 237.07C251.86 238.467 251.252 239.891 249.989 241.34Z" fill="#636365"/>
<path d="M260.383 226.55L259.019 228.752L238.385 215.971L239.749 213.769L253.891 222.529L253.94 222.449L250.194 211.665L251.726 209.19L254.463 217.371L266.154 217.232L264.65 219.662L255.215 219.581L256.649 224.238L260.383 226.55Z" fill="#636365"/>
<path d="M270.723 207.098L269.656 209.487L254.59 202.755L255.658 200.366L270.723 207.098ZM251.976 200.095C251.762 200.574 251.438 200.898 251.002 201.064C250.571 201.221 250.104 201.188 249.599 200.964C249.145 200.76 248.832 200.446 248.662 200.018C248.504 199.586 248.532 199.132 248.747 198.651C248.961 198.173 249.28 197.851 249.702 197.69C250.134 197.532 250.576 197.553 251.032 197.758C251.535 197.984 251.873 198.31 252.043 198.736C252.212 199.163 252.191 199.616 251.976 200.095Z" fill="#636365"/>
<path d="M275.181 194.418L274.373 196.907L258.68 191.809L259.488 189.32L275.181 194.418ZM255.798 189.441C255.636 189.94 255.347 190.296 254.932 190.508C254.519 190.71 254.051 190.728 253.528 190.557C253.054 190.403 252.71 190.122 252.494 189.715C252.292 189.302 252.27 188.847 252.433 188.348C252.595 187.849 252.879 187.496 253.282 187.291C253.695 187.088 254.137 187.063 254.612 187.216C255.137 187.386 255.507 187.675 255.72 188.082C255.934 188.489 255.96 188.942 255.798 189.441Z" fill="#636365"/>
<path d="M26.741 158.37C26.741 153.655 30.5629 149.833 35.2792 149.833C39.9942 149.833 43.8161 153.655 43.8161 158.37C43.8161 163.085 39.9942 166.906 35.2792 166.906C30.5643 166.906 26.7424 163.085 26.741 158.37Z" fill="#636365"/>
<path d="M263.461 158.37C263.461 153.655 267.283 149.833 271.998 149.833C276.713 149.833 280.534 153.655 280.536 158.37C280.536 163.085 276.714 166.906 271.998 166.906C267.283 166.906 263.461 163.085 263.461 158.37Z" fill="#636365"/>
<defs>
<clipPath id="clip0_1_4">
<rect width="146.215" height="146.215" fill="white" transform="translate(82.7182 82.6438)"/>
</clipPath>
<clipPath id="clip1_1_4">
<rect width="146.215" height="146.215" fill="white" transform="translate(82.7182 82.6438)"/>
</clipPath>
</defs>
</svg>
