<svg width="147" height="147" viewBox="0 0 147 147" fill="none" xmlns="http://www.w3.org/2000/svg">
<g clip-path="url(#clip0_1_2)">
<g clip-path="url(#clip1_1_2)">
<path d="M133.226 0.643799H14.4259C6.88666 0.643799 0.718201 6.81226 0.718201 14.3515V133.152C0.718201 140.691 6.88666 146.859 14.4259 146.859H133.226C140.763 146.859 146.934 140.691 146.934 133.152V14.3515C146.934 6.81226 140.763 0.643799 133.226 0.643799ZM116.788 17.2872H130.464V28.5093H116.788V17.2872ZM17.188 17.2872H71.8977V28.5093H17.188V17.2872ZM131.691 128.836H15.9589V43.2405H131.691V128.836Z" fill="#636365"/>
<path d="M54.7768 96.0859L33.2945 83.0339L54.7768 70.4479V57.0624L23.9756 77.4937V88.8551L54.7768 109.376V96.0859Z" fill="#636365"/>
<path d="M123.676 77.4937L92.8751 57.0624V70.4479L114.355 83.0339L92.8751 96.0859V109.376L123.676 88.8551V77.4937Z" fill="#636365"/>
<path d="M86.1149 50.7637H77.0792L61.537 115.676H70.4013L86.1149 50.7637Z" fill="#636365"/>
</g>
</g>
<defs>
<clipPath id="clip0_1_2">
<rect width="146.215" height="146.215" fill="white" transform="translate(0.718201 0.643799)"/>
</clipPath>
<clipPath id="clip1_1_2">
<rect width="146.215" height="146.215" fill="white" transform="translate(0.718201 0.643799)"/>
</clipPath>
</defs>
</svg>
