<svg width="690" height="630" viewBox="0 0 690 630" fill="none" xmlns="http://www.w3.org/2000/svg">
<path d="M64.2299 277.593C64.2299 277.593 347.291 150.269 445.462 105.438C483.092 87.5058 610.716 30.1191 610.716 30.1191C610.716 30.1191 669.618 5.01746 664.709 65.984C663.071 91.0903 649.981 178.96 636.891 274.004C617.259 408.502 595.987 555.546 595.987 555.546C595.987 555.546 592.718 596.793 564.904 603.967C537.086 611.141 491.274 578.86 483.092 571.686C476.55 566.305 360.381 485.609 317.843 446.159C306.388 435.401 293.298 413.879 319.477 388.773C378.379 329.598 448.736 256.072 491.274 209.448C510.906 187.926 530.543 137.714 448.736 198.685C332.567 286.555 218.033 369.048 218.033 369.048C218.033 369.048 191.858 386.98 142.773 370.84C93.6871 354.7 36.4201 333.183 36.4201 333.183C36.4201 333.183 -2.84468 306.28 64.2385 277.593H64.2299Z" stroke="black" stroke-width="50"/>
</svg>
